<svg width="32" height="32" viewBox="0 0 100 100" fill="none" xmlns="http://www.w3.org/2000/svg">
  <defs>
    <linearGradient id="gold-gradient" x1="0%" y1="0%" x2="100%" y2="100%">
      <stop offset="0%" stop-color="#FFD700" />
      <stop offset="50%" stop-color="#FFA500" />
      <stop offset="100%" stop-color="#FF8C00" />
    </linearGradient>
  </defs>
  
  <!-- Wolf Head -->
  <path
    d="M20 35 Q15 25 25 20 Q35 15 50 20 Q65 15 75 20 Q85 25 80 35 Q85 45 80 55 Q75 65 65 70 Q55 75 50 80 Q45 75 35 70 Q25 65 20 55 Q15 45 20 35 Z"
    fill="url(#gold-gradient)"
    stroke="#FFD700"
    stroke-width="2"
  />
  
  <!-- Wolf Eyes -->
  <circle cx="35" cy="40" r="3" fill="#FFFFFF" opacity="0.8" />
  <circle cx="65" cy="40" r="3" fill="#FFFFFF" opacity="0.8" />
  
  <!-- Wolf Snout -->
  <ellipse cx="50" cy="60" rx="8" ry="6" fill="#FFD700" opacity="0.7" />
  
  <!-- Wolf Ears -->
  <path d="M30 30 Q25 20 30 15 Q35 20 30 30" fill="url(#gold-gradient)" stroke="#FFD700" stroke-width="1.5" />
  <path d="M70 30 Q75 20 70 15 Q65 20 70 30" fill="url(#gold-gradient)" stroke="#FFD700" stroke-width="1.5" />
</svg>
