<svg xmlns="http://www.w3.org/2000/svg" viewBox="0 0 100 100" width="32" height="32">
  <defs>
    <linearGradient id="gold" x1="0%" y1="0%" x2="100%" y2="100%">
      <stop offset="0%" stop-color="#FFD700"/>
      <stop offset="50%" stop-color="#FFA500"/>
      <stop offset="100%" stop-color="#FF8C00"/>
    </linearGradient>
    <filter id="glow">
      <feGaussianBlur stdDeviation="2" result="coloredBlur"/>
      <feMerge> 
        <feMergeNode in="coloredBlur"/>
        <feMergeNode in="SourceGraphic"/>
      </feMerge>
    </filter>
  </defs>
  
  <!-- Keyblade Blade -->
  <path d="M50 10 L55 15 L55 25 L50 30 L45 25 L45 15 Z" fill="url(#gold)" stroke="#B8860B" stroke-width="0.5"/>
  
  <!-- Main Blade -->
  <rect x="47" y="30" width="6" height="40" fill="url(#gold)" stroke="#B8860B" stroke-width="0.5" rx="2"/>
  
  <!-- Cross Guard -->
  <rect x="35" y="60" width="30" height="8" fill="url(#gold)" stroke="#B8860B" stroke-width="0.5" rx="4"/>
  
  <!-- Handle -->
  <rect x="47" y="68" width="6" height="15" fill="url(#gold)" stroke="#B8860B" stroke-width="0.5" rx="3"/>
  
  <!-- Pommel -->
  <circle cx="50" cy="88" r="8" fill="url(#gold)" stroke="#B8860B" stroke-width="0.5" filter="url(#glow)"/>
  
  <!-- Heart Symbol -->
  <path d="M50 82 C46 78, 42 82, 42 86 C42 90, 50 96, 50 96 C50 96, 58 90, 58 86 C58 82, 54 78, 50 82 Z" fill="#FFD700" opacity="0.9" filter="url(#glow)"/>
  
  <!-- Decorative Elements -->
  <circle cx="40" cy="64" r="2" fill="#FFD700" opacity="0.8"/>
  <circle cx="60" cy="64" r="2" fill="#FFD700" opacity="0.8"/>
</svg>